<svg width="512" height="512" viewBox="0 0 512 512" fill="none" xmlns="http://www.w3.org/2000/svg">
<path d="M475.56 300.52C469.72 287.92 459.88 277.6 447.56 271.2C440.12 266.56 432.04 263 423.56 260.68C429.68 238.28 421 220.44 408.8 207.12C390.76 187.6 372 184.76 372 184.76C378.48 172.48 380.44 158.32 377.44 144.76C374.36 130 365.12 117.32 352 109.88C339.6 102.56 324.32 98.96 308.64 96C301.12 94.64 269.4 90.2 256.24 72C245.64 57.24 245.32 30.68 242.44 22.72C239.56 14.76 228.92 18.12 217.52 25.76C204.2 34.8 176.6 63.32 165.96 92C158.92 109.64 157.16 128.92 160.84 147.56C152.28 148.96 143.92 151.44 136 154.96C135.36 154.96 134.72 155.36 134.04 155.64C122.04 160.6 96.32 183.64 94.04 219.04C93.2 231.56 94.8 244.08 98.72 256C89.96 258.28 81.52 261.72 73.68 266.28C64.52 270.2 56.16 275.8 49.08 282.8C41.28 292.44 35.6 303.6 32.48 315.6C25.24 342.04 28.08 370.24 40.48 394.68C47.68 408.56 56.72 421.36 67.44 432.76C101.64 467.92 160.68 481.2 207.44 488.76C264.2 498.12 323.64 494.84 376.76 472.76C456.44 439.88 477.64 387 480.76 372.08C487.68 339.08 479.2 308 475.56 300.52Z" fill="#3784D7"/>
<path d="M349.8 371.56C343.52 374.76 337.12 377.64 330.68 380.2C326.36 381.92 322 383.48 317.6 384.88C313.2 386.32 308.76 387.56 304.28 388.88C295.32 391.12 286.2 392.76 277 393.72C270.04 394.48 263 394.84 256 394.84C237.52 394.84 219.12 392.24 201.32 387.2L195.48 385.44C185.68 382.32 176.12 378.52 166.88 374.08L161.32 371.32C167.96 398.48 186.72 421.04 212.2 432.56C225.92 438.92 240.88 442.16 256 442.08C271.28 442.2 286.4 439.08 300.36 432.84C326.08 421.52 344.8 398.56 350.68 371.08L349.8 371.56Z" fill="#134579"/>
<path d="M340.76 360C312.76 364.92 284.4 367.28 256 367.08C227.6 367.24 199.24 364.88 171.24 360C166.56 359.08 162.04 362.16 161.12 366.84C160.92 367.92 160.92 369.08 161.12 370.16V371.16C190.4 386.48 222.96 394.52 256 394.64C263 394.64 270.04 394.28 277 393.52C286.2 392.56 295.32 390.92 304.28 388.68C308.76 387.56 313.2 386.32 317.6 384.68C322 383.04 326.36 381.72 330.68 380C337.16 377.32 343.52 374.44 349.8 371.36L350.68 370.88L350.92 369.8C351.6 365.04 348.28 360.64 343.48 359.96C342.6 359.84 341.68 359.84 340.76 360Z" fill="white"/>
<path d="M320.52 327.56C347.913 327.56 370.12 305.353 370.12 277.96C370.12 250.567 347.913 228.36 320.52 228.36C293.127 228.36 270.92 250.567 270.92 277.96C270.92 305.353 293.127 327.56 320.52 327.56Z" fill="white"/>
<path d="M320.52 301.24C333.178 301.24 343.44 290.817 343.44 277.96C343.44 265.103 333.178 254.68 320.52 254.68C307.862 254.68 297.6 265.103 297.6 277.96C297.6 290.817 307.862 301.24 320.52 301.24Z" fill="#1F64AE"/>
<path d="M191.48 327.56C218.873 327.56 241.08 305.353 241.08 277.96C241.08 250.567 218.873 228.36 191.48 228.36C164.087 228.36 141.88 250.567 141.88 277.96C141.88 305.353 164.087 327.56 191.48 327.56Z" fill="white"/>
<path d="M191.48 301.24C204.138 301.24 214.4 290.817 214.4 277.96C214.4 265.103 204.138 254.68 191.48 254.68C178.822 254.68 168.56 265.103 168.56 277.96C168.56 290.817 178.822 301.24 191.48 301.24Z" fill="#1F64AE"/>
</svg>
